<mxfile host="app.diagrams.net" modified="2021-05-18T22:52:26.484Z" agent="5.0 (X11; CrOS x86_64 13816.64.0) AppleWebKit/537.36 (KHTML, like Gecko) Chrome/90.0.4430.100 Safari/537.36" etag="sd5LMG5JDEBzWNq_0MDZ" version="14.6.13" type="github">
  <diagram id="DCcMp3mevbrmO6jFybCP" name="Page-1">
    <mxGraphModel dx="1552" dy="799" grid="1" gridSize="10" guides="1" tooltips="1" connect="1" arrows="1" fold="1" page="1" pageScale="1" pageWidth="850" pageHeight="1100" math="0" shadow="0">
      <root>
        <mxCell id="0" />
        <mxCell id="1" parent="0" />
        <mxCell id="JRmHWnT9g9YOJYU2Il0Q-42" value="" style="rounded=1;whiteSpace=wrap;html=1;fillColor=#fff2cc;strokeColor=#d6b656;" vertex="1" parent="1">
          <mxGeometry x="15" y="280" width="880" height="820" as="geometry" />
        </mxCell>
        <mxCell id="JRmHWnT9g9YOJYU2Il0Q-30" value="" style="rounded=1;whiteSpace=wrap;html=1;fillColor=#dae8fc;strokeColor=#6c8ebf;" vertex="1" parent="1">
          <mxGeometry x="85" width="740" height="250" as="geometry" />
        </mxCell>
        <mxCell id="JRmHWnT9g9YOJYU2Il0Q-19" value="" style="group;fillColor=#f8cecc;strokeColor=#b85450;" vertex="1" connectable="0" parent="1">
          <mxGeometry x="280" y="840" width="250" height="210" as="geometry" />
        </mxCell>
        <mxCell id="JRmHWnT9g9YOJYU2Il0Q-20" value="" style="rounded=0;whiteSpace=wrap;html=1;fillColor=#f8cecc;strokeColor=#b85450;" vertex="1" parent="JRmHWnT9g9YOJYU2Il0Q-19">
          <mxGeometry width="250" height="210" as="geometry" />
        </mxCell>
        <mxCell id="JRmHWnT9g9YOJYU2Il0Q-21" value="Recourir à d&#39;autre technique pour les cas plus difficile comme des lettres qui sont confondus.&lt;br&gt;Le O en Q par exemple" style="rounded=1;whiteSpace=wrap;html=1;fillColor=#dae8fc;strokeColor=#6c8ebf;" vertex="1" parent="JRmHWnT9g9YOJYU2Il0Q-19">
          <mxGeometry x="43.269230769230774" y="79.79999999999998" width="163.46153846153845" height="67.2" as="geometry" />
        </mxCell>
        <mxCell id="JRmHWnT9g9YOJYU2Il0Q-22" value="Post-processing" style="text;html=1;strokeColor=none;fillColor=none;align=center;verticalAlign=middle;whiteSpace=wrap;rounded=0;" vertex="1" parent="JRmHWnT9g9YOJYU2Il0Q-19">
          <mxGeometry x="38.46153846153846" y="16.8" width="173.0769230769231" height="16.8" as="geometry" />
        </mxCell>
        <mxCell id="JRmHWnT9g9YOJYU2Il0Q-32" value="" style="group" vertex="1" connectable="0" parent="1">
          <mxGeometry x="110" y="20" width="650" height="210" as="geometry" />
        </mxCell>
        <mxCell id="JRmHWnT9g9YOJYU2Il0Q-5" value="" style="group;fillColor=#f8cecc;strokeColor=#b85450;" vertex="1" connectable="0" parent="JRmHWnT9g9YOJYU2Il0Q-32">
          <mxGeometry y="30" width="260" height="150" as="geometry" />
        </mxCell>
        <mxCell id="JRmHWnT9g9YOJYU2Il0Q-2" value="" style="rounded=0;whiteSpace=wrap;html=1;fillColor=#f8cecc;strokeColor=#b85450;" vertex="1" parent="JRmHWnT9g9YOJYU2Il0Q-5">
          <mxGeometry width="260" height="150" as="geometry" />
        </mxCell>
        <mxCell id="JRmHWnT9g9YOJYU2Il0Q-3" value="Recuperer quelques feuilles déjà remplies (test set)." style="text;html=1;strokeColor=none;fillColor=none;align=center;verticalAlign=middle;whiteSpace=wrap;rounded=0;" vertex="1" parent="JRmHWnT9g9YOJYU2Il0Q-5">
          <mxGeometry x="50" y="6" width="150" height="36.00000000000001" as="geometry" />
        </mxCell>
        <mxCell id="JRmHWnT9g9YOJYU2Il0Q-4" value="&lt;span&gt;Comment est générer la grille?&lt;/span&gt;&lt;br&gt;&lt;span&gt;Avons-nous la position (x,y) de chaque petits carrés?&amp;nbsp;&lt;/span&gt;" style="rounded=1;whiteSpace=wrap;html=1;fillColor=#dae8fc;strokeColor=#6c8ebf;" vertex="1" parent="JRmHWnT9g9YOJYU2Il0Q-5">
          <mxGeometry x="45" y="51" width="170" height="48" as="geometry" />
        </mxCell>
        <mxCell id="JRmHWnT9g9YOJYU2Il0Q-15" value="" style="group" vertex="1" connectable="0" parent="JRmHWnT9g9YOJYU2Il0Q-32">
          <mxGeometry x="390" width="260" height="210" as="geometry" />
        </mxCell>
        <mxCell id="JRmHWnT9g9YOJYU2Il0Q-16" value="" style="rounded=0;whiteSpace=wrap;html=1;fillColor=#f8cecc;strokeColor=#b85450;" vertex="1" parent="JRmHWnT9g9YOJYU2Il0Q-15">
          <mxGeometry width="260" height="210" as="geometry" />
        </mxCell>
        <mxCell id="JRmHWnT9g9YOJYU2Il0Q-17" value="Annoter ce test set, entre autre chaque lettre, afin de pouvoir évaluer de manière quatitative chaque détection.&lt;br&gt;(% de certitude)" style="rounded=1;whiteSpace=wrap;html=1;fillColor=#dae8fc;strokeColor=#6c8ebf;" vertex="1" parent="JRmHWnT9g9YOJYU2Il0Q-15">
          <mxGeometry x="45" y="79.79999999999998" width="170" height="67.2" as="geometry" />
        </mxCell>
        <mxCell id="JRmHWnT9g9YOJYU2Il0Q-18" value="Tester le modele actuel" style="text;html=1;strokeColor=none;fillColor=none;align=center;verticalAlign=middle;whiteSpace=wrap;rounded=0;" vertex="1" parent="JRmHWnT9g9YOJYU2Il0Q-15">
          <mxGeometry x="40" y="16.8" width="180" height="16.8" as="geometry" />
        </mxCell>
        <mxCell id="JRmHWnT9g9YOJYU2Il0Q-31" value="&lt;b&gt;Testing&lt;/b&gt;" style="text;html=1;strokeColor=none;fillColor=none;align=center;verticalAlign=middle;whiteSpace=wrap;rounded=0;" vertex="1" parent="JRmHWnT9g9YOJYU2Il0Q-32">
          <mxGeometry x="295" width="40" height="20" as="geometry" />
        </mxCell>
        <mxCell id="JRmHWnT9g9YOJYU2Il0Q-33" value="" style="group" vertex="1" connectable="0" parent="1">
          <mxGeometry x="300" y="470" width="545" height="380" as="geometry" />
        </mxCell>
        <mxCell id="JRmHWnT9g9YOJYU2Il0Q-9" value="" style="group" vertex="1" connectable="0" parent="JRmHWnT9g9YOJYU2Il0Q-33">
          <mxGeometry x="125" y="50" width="420" height="330" as="geometry" />
        </mxCell>
        <mxCell id="JRmHWnT9g9YOJYU2Il0Q-11" value="" style="group" vertex="1" connectable="0" parent="JRmHWnT9g9YOJYU2Il0Q-9">
          <mxGeometry x="-360" y="20" width="780" height="310" as="geometry" />
        </mxCell>
        <mxCell id="JRmHWnT9g9YOJYU2Il0Q-34" value="" style="group" vertex="1" connectable="0" parent="JRmHWnT9g9YOJYU2Il0Q-11">
          <mxGeometry x="-20" y="-80" width="800" height="340" as="geometry" />
        </mxCell>
        <mxCell id="JRmHWnT9g9YOJYU2Il0Q-28" value="" style="rounded=1;whiteSpace=wrap;html=1;fillColor=#647687;strokeColor=#314354;fontColor=#ffffff;" vertex="1" parent="JRmHWnT9g9YOJYU2Il0Q-34">
          <mxGeometry width="770" height="340" as="geometry" />
        </mxCell>
        <mxCell id="JRmHWnT9g9YOJYU2Il0Q-12" value="" style="rounded=0;whiteSpace=wrap;html=1;fillColor=#f8cecc;strokeColor=#b85450;" vertex="1" parent="JRmHWnT9g9YOJYU2Il0Q-34">
          <mxGeometry x="20" y="60" width="260" height="255" as="geometry" />
        </mxCell>
        <mxCell id="JRmHWnT9g9YOJYU2Il0Q-13" value="detecter à l&#39;interieur des petits carrés s&#39;il y a des caractères ou pas" style="rounded=1;whiteSpace=wrap;html=1;fillColor=#dae8fc;strokeColor=#6c8ebf;" vertex="1" parent="JRmHWnT9g9YOJYU2Il0Q-34">
          <mxGeometry x="70" y="145" width="170" height="80" as="geometry" />
        </mxCell>
        <mxCell id="JRmHWnT9g9YOJYU2Il0Q-14" value="Noveau modele de detection (YOLO)" style="text;html=1;strokeColor=none;fillColor=none;align=center;verticalAlign=middle;whiteSpace=wrap;rounded=0;" vertex="1" parent="JRmHWnT9g9YOJYU2Il0Q-34">
          <mxGeometry x="60" y="100" width="180" height="20" as="geometry" />
        </mxCell>
        <mxCell id="JRmHWnT9g9YOJYU2Il0Q-37" value="Si caract détecté" style="text;html=1;strokeColor=none;fillColor=none;align=center;verticalAlign=middle;whiteSpace=wrap;rounded=0;" vertex="1" parent="JRmHWnT9g9YOJYU2Il0Q-34">
          <mxGeometry x="280" y="160" width="100" height="20" as="geometry" />
        </mxCell>
        <mxCell id="JRmHWnT9g9YOJYU2Il0Q-6" value="" style="rounded=0;whiteSpace=wrap;html=1;fillColor=#f8cecc;strokeColor=#b85450;" vertex="1" parent="JRmHWnT9g9YOJYU2Il0Q-9">
          <mxGeometry width="370" height="250" as="geometry" />
        </mxCell>
        <mxCell id="JRmHWnT9g9YOJYU2Il0Q-7" value="Classifier les caractères détectés dans le petits carré" style="rounded=1;whiteSpace=wrap;html=1;fillColor=#dae8fc;strokeColor=#6c8ebf;" vertex="1" parent="JRmHWnT9g9YOJYU2Il0Q-9">
          <mxGeometry x="101.01" y="180" width="168.99" height="60" as="geometry" />
        </mxCell>
        <mxCell id="JRmHWnT9g9YOJYU2Il0Q-8" value="Notre modele de classication existant (trained sur nos papers)" style="text;html=1;strokeColor=none;fillColor=none;align=center;verticalAlign=middle;whiteSpace=wrap;rounded=0;" vertex="1" parent="JRmHWnT9g9YOJYU2Il0Q-9">
          <mxGeometry x="73.46000000000001" y="20" width="223.08" height="30" as="geometry" />
        </mxCell>
        <mxCell id="JRmHWnT9g9YOJYU2Il0Q-27" value="Poser des contraintes sur les petits carrés.&lt;br&gt;Savoi le quantieme devrait contenir un chiffre ou un lettre afin d&#39;éviter des cas comme 3 ou 8 predit en B,&lt;br&gt;le O en 0, etc." style="rounded=1;whiteSpace=wrap;html=1;fillColor=#dae8fc;strokeColor=#6c8ebf;" vertex="1" parent="JRmHWnT9g9YOJYU2Il0Q-9">
          <mxGeometry x="90" y="60" width="190" height="100" as="geometry" />
        </mxCell>
        <mxCell id="JRmHWnT9g9YOJYU2Il0Q-29" value="&lt;b&gt;Detection&amp;nbsp; &amp;amp; Classification&lt;/b&gt;" style="text;html=1;strokeColor=none;fillColor=none;align=center;verticalAlign=middle;whiteSpace=wrap;rounded=0;" vertex="1" parent="JRmHWnT9g9YOJYU2Il0Q-33">
          <mxGeometry width="180" height="20" as="geometry" />
        </mxCell>
        <mxCell id="JRmHWnT9g9YOJYU2Il0Q-35" value="" style="endArrow=classic;html=1;exitX=1;exitY=0.5;exitDx=0;exitDy=0;" edge="1" parent="1" source="JRmHWnT9g9YOJYU2Il0Q-13">
          <mxGeometry width="50" height="50" relative="1" as="geometry">
            <mxPoint x="400" y="820" as="sourcePoint" />
            <mxPoint x="510" y="645" as="targetPoint" />
          </mxGeometry>
        </mxCell>
        <mxCell id="JRmHWnT9g9YOJYU2Il0Q-38" value="" style="endArrow=classic;html=1;" edge="1" parent="1">
          <mxGeometry width="50" height="50" relative="1" as="geometry">
            <mxPoint x="610" y="680" as="sourcePoint" />
            <mxPoint x="610" y="710" as="targetPoint" />
          </mxGeometry>
        </mxCell>
        <mxCell id="JRmHWnT9g9YOJYU2Il0Q-40" value="" style="endArrow=classic;html=1;exitX=0.005;exitY=0.608;exitDx=0;exitDy=0;exitPerimeter=0;" edge="1" parent="1">
          <mxGeometry width="50" height="50" relative="1" as="geometry">
            <mxPoint x="321.25" y="360.79999999999995" as="sourcePoint" />
            <mxPoint x="202" y="518" as="targetPoint" />
            <Array as="points">
              <mxPoint x="202" y="360" />
            </Array>
          </mxGeometry>
        </mxCell>
        <mxCell id="JRmHWnT9g9YOJYU2Il0Q-41" value="" style="endArrow=classic;html=1;exitX=0.75;exitY=1;exitDx=0;exitDy=0;" edge="1" parent="1" source="JRmHWnT9g9YOJYU2Il0Q-28">
          <mxGeometry width="50" height="50" relative="1" as="geometry">
            <mxPoint x="620" y="797" as="sourcePoint" />
            <mxPoint x="480" y="960" as="targetPoint" />
            <Array as="points">
              <mxPoint x="620" y="960" />
            </Array>
          </mxGeometry>
        </mxCell>
        <mxCell id="JRmHWnT9g9YOJYU2Il0Q-46" value="" style="group" vertex="1" connectable="0" parent="1">
          <mxGeometry x="320" y="310" width="275" height="100" as="geometry" />
        </mxCell>
        <mxCell id="JRmHWnT9g9YOJYU2Il0Q-43" value="" style="rounded=0;whiteSpace=wrap;html=1;fillColor=#f8cecc;strokeColor=#b85450;" vertex="1" parent="JRmHWnT9g9YOJYU2Il0Q-46">
          <mxGeometry width="275" height="100" as="geometry" />
        </mxCell>
        <mxCell id="JRmHWnT9g9YOJYU2Il0Q-44" value="Avoir la position (x,y) des petits carrés, puis extraire l&#39;intérieur" style="rounded=1;whiteSpace=wrap;html=1;fillColor=#dae8fc;strokeColor=#6c8ebf;" vertex="1" parent="JRmHWnT9g9YOJYU2Il0Q-46">
          <mxGeometry x="63.26923076923072" y="48" width="163.46153846153848" height="32" as="geometry" />
        </mxCell>
        <mxCell id="JRmHWnT9g9YOJYU2Il0Q-45" value="preprocessing" style="text;html=1;strokeColor=none;fillColor=none;align=center;verticalAlign=middle;whiteSpace=wrap;rounded=0;" vertex="1" parent="JRmHWnT9g9YOJYU2Il0Q-46">
          <mxGeometry x="117.5" width="40" height="20" as="geometry" />
        </mxCell>
        <mxCell id="JRmHWnT9g9YOJYU2Il0Q-47" value="&lt;b&gt;Pipeline&lt;/b&gt;" style="text;html=1;strokeColor=none;fillColor=none;align=center;verticalAlign=middle;whiteSpace=wrap;rounded=0;" vertex="1" parent="1">
          <mxGeometry x="405" y="1070" width="40" height="20" as="geometry" />
        </mxCell>
      </root>
    </mxGraphModel>
  </diagram>
</mxfile>
